HIERARCHY
ROOT Hips
{
  OFFSET 0 89.5177 0.535
  CHANNELS 6 Xposition Yposition Zposition Zrotation Xrotation Yrotation
  JOINT Spine
  {
    OFFSET 12.0259 -0.162855 1.69034e-005
    CHANNELS 3 Zrotation Xrotation Yrotation
    JOINT Spine1
    {
      OFFSET 15.3169 -0.0121922 0
      CHANNELS 3 Zrotation Xrotation Yrotation
      JOINT Spine2
      {
        OFFSET 15.3176 -0.0121908 0
        CHANNELS 3 Zrotation Xrotation Yrotation
        JOINT Neck
        {
          OFFSET 19.9142 1.56338 0
          CHANNELS 3 Zrotation Xrotation Yrotation
          JOINT Head
          {
            OFFSET 6.92651 0 0
            CHANNELS 3 Zrotation Xrotation Yrotation
            End Site
            {
              OFFSET 20.7666 0 0
            }
          }
          JOINT LeftShoulder
          {
            OFFSET -6.20654 0.708824 7.28219
            CHANNELS 3 Zrotation Xrotation Yrotation
            JOINT LeftArm
            {
              OFFSET 14.108 0 -1.52588e-005
              CHANNELS 3 Zrotation Xrotation Yrotation
              JOINT LeftForeArm
              {
                OFFSET 28.5802 0 0
                CHANNELS 3 Zrotation Xrotation Yrotation
                JOINT LeftHand
                {
                  OFFSET 27.092 0 0
                  CHANNELS 3 Zrotation Xrotation Yrotation
                  End Site
                  {
                    OFFSET 9.55928 -0.186424 0.145352
                  }
                }
              }
            }
          }
          JOINT RightShoulder
          {
            OFFSET -6.20654 0.708866 -7.28218
            CHANNELS 3 Zrotation Xrotation Yrotation
            JOINT RightArm
            {
              OFFSET 14.108 0 1.52588e-005
              CHANNELS 3 Zrotation Xrotation Yrotation
              JOINT RightForeArm
              {
                OFFSET 28.5802 0 0
                CHANNELS 3 Zrotation Xrotation Yrotation
                JOINT RightHand
                {
                  OFFSET 27.092 0 0
                  CHANNELS 3 Zrotation Xrotation Yrotation
                  End Site
                  {
                    OFFSET 9.55929 -0.186417 -0.145354
                  }
                }
              }
            }
          }
        }
      }
    }
  }
  JOINT LeftUpLeg
  {
    OFFSET 0.005 -0.535 8.837
    CHANNELS 3 Zrotation Xrotation Yrotation
    JOINT LeftLeg
    {
      OFFSET 39.9035 0 0
      CHANNELS 3 Zrotation Xrotation Yrotation
      JOINT LeftFoot
      {
        OFFSET 39.6689 0 0
        CHANNELS 3 Zrotation Xrotation Yrotation
        JOINT LeftToe
        {
          OFFSET 10.1624 13.6296 0
          CHANNELS 3 Zrotation Xrotation Yrotation
          End Site
          {
            OFFSET 8.38147 0 0
          }
        }
      }
    }
  }
  JOINT RightUpLeg
  {
    OFFSET 0.005 -0.535 -8.837
    CHANNELS 3 Zrotation Xrotation Yrotation
    JOINT RightLeg
    {
      OFFSET 39.9035 0 0
      CHANNELS 3 Zrotation Xrotation Yrotation
      JOINT RightFoot
      {
        OFFSET 39.6689 0 0
        CHANNELS 3 Zrotation Xrotation Yrotation
        JOINT RightToe
        {
          OFFSET 10.1624 13.6296 0
          CHANNELS 3 Zrotation Xrotation Yrotation
          End Site
          {
            OFFSET 8.38147 0 0
          }
        }
      }
    }
  }
}
MOTION
Frames:	12
Frame Time:	0.0333333
273.406 88.8802 -88.7466 -75.9171 -28.1956 -172.08 4.88339 -1.94718 0.189642 9.78159 -3.87063 0.545137 9.78159 -3.87063 0.545127 -8.30569e-012 -9.0191e-006 -5.27751e-005 12.4641 -23.0057 17.9687 -179.591 -1.21404 -71.3616 -3.4177 11.7508 55.8712 -65.9866 -1.59028e-015 -3.18055e-015 -47.6423 -52.3268 -46.9265 -178.303 7.80521 77.6963 154.731 16.8998 -139.961 -4.03317e-006 6.36111e-015 3.18055e-015 -31.3572 38.0198 22.2322 -9.82463 13.4359 -173.723 -58.1213 -6.36111e-015 -3.18055e-015 4.10304 5.94855 -9.94161 90 6.36111e-015 -3.18055e-015 12.1108 -7.32743 178.349 -13.668 -6.36111e-015 7.95139e-016 13.3537 -4.17648 1.35675 90 0 -0 
275.641 89.0484 -91.1134 -76.2218 -27.8372 -171.835 4.8956 -1.655 0.0444188 9.7986 -3.29968 0.230294 9.7986 -3.29969 0.230284 -8.30569e-012 -9.0191e-006 -5.27751e-005 11.9727 -23.1146 17.4417 -179.478 -1.52387 -71.099 -1.44242 12.8245 55.2356 -65.5921 1.39149e-015 6.36111e-015 -49.5559 -55.8023 -50.2751 -178.456 7.56234 78.4251 153.764 15.9724 -140.12 -4.02138e-006 -2.8625e-014 -3.18055e-015 -31.0877 38.5502 22.2933 -9.87587 14.8706 -174.187 -49.15 3.18055e-015 -0 7.65612 5.89296 -7.90802 90 0 -3.18055e-015 14.0893 -7.21922 177.274 -13.128 -6.36111e-015 -7.95139e-016 13.5518 -4.23442 1.26288 90 9.93923e-017 6.36111e-015 
277.836 88.9751 -93.6165 -76.6531 -27.5917 -171.707 4.87429 -1.44919 -0.0700315 9.7515 -2.89859 -0.016486 9.7515 -2.89859 -0.0164952 -8.31066e-012 -9.0191e-006 -5.27751e-005 11.3288 -23.0548 16.8062 -179.312 -1.9722 -70.7721 0.351623 13.5151 54.6399 -64.9225 -3.18055e-015 -3.18055e-015 -52.7495 -57.8475 -54.3061 -178.582 7.35182 79.0517 152.884 15.2497 -140.528 -4.01021e-006 1.27222e-014 -0 -30.6396 39.0772 22.1274 -9.03553 15.0804 -174.625 -37.589 -3.18055e-015 -3.18055e-015 7.84177 5.72309 -9.80502 90 -1.59028e-015 9.54166e-015 14.4313 -6.80058 175.869 -15.6947 0 1.59028e-015 15.1289 -4.0234 2.24779 90 -1.98785e-016 -0 
280.066 88.6442 -96.3438 -77.0714 -27.6634 -171.478 4.8224 -1.2971 -0.17518 9.64456 -2.60385 -0.240619 9.64456 -2.60385 -0.240628 -8.30828e-012 -9.0191e-006 -5.27751e-005 10.7432 -23.0864 16.2568 -179.225 -2.20896 -70.658 1.79393 13.9587 54.444 -64.0771 0 -3.18055e-015 -55.1092 -58.3959 -56.9321 -178.666 7.19835 79.4693 153.128 14.6438 -140.984 -3.99966e-006 0 -9.54166e-015 -30.3886 39.1823 22.2955 -7.15575 13.7608 -175.723 -25.1574 0 2.78299e-015 5.52823 5.45774 -11.8733 90 -7.95139e-016 6.36111e-015 14.2587 -6.47053 174.251 -19.5709 0 -1.59028e-015 17.1713 -3.60882 3.37664 90 -7.95139e-016 -0 
282.318 88.1104 -99.3737 -76.9556 -27.7631 -170.297 4.80651 -1.23642 -0.402555 9.60766 -2.50172 -0.70018 9.60766 -2.50172 -0.700189 -8.30748e-012 -9.0191e-006 -5.27751e-005 10.4194 -22.9809 15.7102 -179.212 -2.24559 -70.6457 2.97698 14.2801 54.5415 -63.4223 3.97569e-015 3.18055e-015 -57.0755 -58.179 -59.006 -178.738 6.96271 79.7008 154.142 14.281 -141.509 -3.98974e-006 6.36111e-015 -6.36111e-015 -30.2178 39.5648 22.5515 -6.39058 13.6227 -177.615 -18.4887 3.18055e-015 1.09332e-015 1.29457 6.03152 -11.0128 90 -7.95139e-016 -0 13.8194 -6.53672 171.676 -24.9491 -6.36111e-015 -4.77083e-015 19.4396 -3.27961 4.74026 90 -7.95139e-016 -0 
284.414 87.434 -102.6 -76.1532 -28.1325 -168.27 4.90629 -1.30651 -0.720269 9.79977 -2.66926 -1.32652 9.79977 -2.66926 -1.32653 -8.30529e-012 -9.0191e-006 -5.27751e-005 10.1486 -22.9538 15.6603 -179.124 -2.46163 -70.3992 3.18386 14.0549 54.5616 -62.4457 -3.18055e-015 -6.36111e-015 -58.0155 -57.3641 -59.7816 -178.65 7.14251 79.265 155.126 13.9894 -142.482 -3.98046e-006 0 9.54166e-015 -29.6596 39.813 22.1862 -5.60035 12.6783 179.396 -20.0003 9.54166e-015 1.09332e-015 1.57765 5.25061 -6.47668 90 -7.95139e-016 -3.18055e-015 12.0543 -7.24705 168.108 -33.4794 -6.36111e-015 -6.36111e-015 20.841 -2.7871 6.51329 90 0 -6.36111e-015 
286.338 86.9579 -105.67 -74.6372 -29.1051 -165.681 5.19912 -1.48037 -1.08251 10.3749 -3.05204 -2.02729 10.3749 -3.05204 -2.0273 -8.30867e-012 -9.0191e-006 -5.27751e-005 9.75022 -23.2859 16.6041 -179.077 -2.56305 -70.1929 2.09586 12.5617 54.6224 -59.7989 -4.77083e-015 -3.18055e-015 -59.0037 -55.6485 -60.2348 -178.458 7.38042 78.1662 156.624 13.5186 -142.936 -3.97183e-006 6.36111e-015 -3.18055e-015 -27.7146 40.4663 20.5452 -4.40612 12.0699 176.796 -25.2299 -9.54166e-015 -3.57812e-015 6.41313 5.35473 -6.28686 90 1.59028e-015 -0 7.87756 -8.70637 163.738 -45.5708 4.77083e-015 3.18056e-015 17.827 -1.49324 9.06429 90 2.38542e-015 -0 
288.208 86.5573 -108.527 -74.2551 -29.1152 -164.845 5.20353 -1.37328 -1.22995 10.3812 -2.8517 -2.33117 10.3812 -2.8517 -2.33118 -8.3047e-012 -9.0191e-006 -5.27751e-005 10.0195 -23.6479 16.3411 -179.267 -2.09526 -70.7126 1.46469 11.5568 55.5197 -56.7381 0 -3.18055e-015 -59.7839 -53.3218 -60.3072 -178.439 7.33269 77.9444 158.636 13.6527 -141.674 -3.96384e-006 0 -1.90833e-014 -26.6044 40.9441 19.451 -3.7234 13.4573 175.826 -29.3845 6.36111e-015 -1.59028e-015 10.6166 6.24351 -6.80891 90 -1.59028e-015 -0 1.51853 -8.26674 160.113 -57.3938 7.95139e-015 6.36111e-015 9.54332 0.279744 11.5841 90 -1.59028e-015 -1.59028e-015 
290.193 86.3675 -111.181 -74.0233 -28.1386 -164.097 5.2273 -1.33005 -1.40668 10.425 -2.7819 -2.68734 10.425 -2.7819 -2.68735 -8.3043e-012 -9.0191e-006 -5.27751e-005 9.69615 -22.8727 15.0903 -179.287 -2.02155 -70.5684 1.74439 10.8013 55.7028 -55.5855 3.18055e-015 6.36111e-015 -62.1182 -51.9908 -62.5331 -178.379 7.28152 77.4171 159.495 13.8946 -141.411 -3.95652e-006 0 -6.36111e-015 -26.4777 40.8571 19.42 -1.13167 14.2097 174.302 -30.4694 1.59028e-014 6.36111e-015 13.592 6.14225 -6.17649 90 0 -3.18055e-015 -3.51548 -7.31794 158.025 -64.6934 -3.18056e-015 -9.54167e-015 3.91824 1.59831 7.92125 90 -1.59028e-015 7.95139e-016 
292.389 86.5568 -113.375 -73.6089 -28.2216 -164.55 5.3018 -1.52635 -1.29026 10.5739 -3.1646 -2.43512 10.5739 -3.1646 -2.43513 -8.30768e-012 -9.0191e-006 -5.27751e-005 9.08867 -21.7716 14.0815 -179.211 -2.21951 -70.4232 2.12206 9.71642 55.5918 -55.0235 1.59028e-015 3.18055e-015 -65.5684 -51.8779 -66.4335 -178.295 7.25363 76.7367 159.91 14.1993 -141.493 -3.94986e-006 6.36111e-015 -3.18055e-015 -25.594 41.1022 18.8591 1.89915 13.2495 173.946 -29.4717 3.18055e-015 1.59028e-015 15.4173 5.6008 -4.81459 90 1.59028e-015 1.59028e-014 -6.03839 -7.28062 159.453 -65.8685 0 -0 2.93748 -0.358078 7.52191 90 3.18055e-015 2.38542e-015 
294.616 86.9451 -115.29 -73.7032 -28.8666 -165.306 5.26382 -1.78686 -1.1504 10.4988 -3.67098 -2.13338 10.4988 -3.67098 -2.13338 -8.3045e-012 -9.0191e-006 -5.27751e-005 8.58855 -20.7714 13.4694 -179.279 -2.05956 -70.7002 2.97678 8.66212 55.6683 -54.79 -3.18055e-015 -6.36111e-015 -67.8601 -51.9877 -69.1389 -178.206 7.35531 76.2501 160.942 14.4693 -141.471 -3.94388e-006 -3.18055e-015 -0 -24.6708 41.6923 18.0193 4.43989 12.1923 173.96 -27.8134 0 -0 16.2512 5.27089 -3.92024 90 -7.95139e-016 -0 -8.08063 -7.83868 162.117 -63.9597 0 -3.18056e-015 5.11879 -2.11816 7.46728 90 1.59028e-015 -0 
296.82 87.3898 -117.041 -73.8802 -29.9678 -165.824 5.18773 -2.12992 -1.06186 10.3462 -4.3464 -1.92846 10.3462 -4.3464 -1.92847 -8.30768e-012 -9.0191e-006 -5.27751e-005 8.18419 -19.7128 13.2736 -179.476 -1.53726 -71.1707 4.14239 8.01965 55.5671 -55.5286 3.18055e-015 -3.18055e-015 -70.0267 -51.89 -71.6797 -178.062 7.70842 75.8402 162.719 14.547 -141.739 -3.93857e-006 -6.36111e-015 -0 -23.38 42.2651 16.8829 6.74856 10.7466 173.986 -25.9919 0 1.59028e-015 16.4421 5.19094 -3.34823 90 0 -3.18055e-015 -8.93921 -9.33603 165.362 -58.9442 0 1.59028e-015 10.5358 -2.93323 3.69884 90 1.59028e-015 -6.36111e-015 
